<?xml version="1.0" standalone="no"?>
<!DOCTYPE svg PUBLIC "-//W3C//DTD SVG 20010904//EN"
 "http://www.w3.org/TR/2001/REC-SVG-20010904/DTD/svg10.dtd">
<svg version="1.0" xmlns="http://www.w3.org/2000/svg"
 width="1024.000000pt" height="1024.000000pt" viewBox="0 0 1024.000000 1024.000000"
 preserveAspectRatio="xMidYMid meet">
<metadata>
Created by potrace 1.11, written by Peter Selinger 2001-2013
</metadata>
<g transform="translate(0.000000,1024.000000) scale(0.100000,-0.100000)"
fill="#000000" stroke="none">
<path d="M422 10220 c-105 -28 -167 -64 -252 -150 -87 -86 -122 -147 -150
-256 -20 -76 -20 -127 -20 -4694 0 -4567 0 -4618 20 -4694 28 -109 63 -170
150 -256 86 -87 147 -122 256 -150 76 -20 127 -20 4694 -20 4567 0 4618 0
4694 20 109 28 170 63 256 150 87 86 122 147 150 256 20 76 20 127 20 4694 0
4567 0 4618 -20 4694 -25 100 -61 165 -133 242 -68 73 -132 117 -225 153 l-67
26 -1362 3 -1363 2 0 -1985 0 -1985 664 0 664 0 12 -97 c6 -54 51 -399 99
-768 l86 -670 -762 -3 -763 -2 0 -548 c0 -336 4 -582 11 -637 41 -339 210
-501 569 -545 47 -5 288 -10 542 -10 l458 0 0 -690 0 -690 -22 -5 c-113 -25
-929 -60 -1223 -52 -232 7 -359 22 -542 67 -708 172 -1191 681 -1337 1410 -48
238 -49 254 -53 992 l-4 708 -670 0 -669 0 0 770 0 770 670 0 670 0 0 1985 0
1985 -2487 -1 c-2418 0 -2490 -1 -2561 -19z"/>
</g>
</svg>
